<svg width="85" height="71" viewBox="0 0 85 71" fill="none" xmlns="http://www.w3.org/2000/svg">
<path d="M67.4167 9.15433C73.8875 9.35016 77.75 10.071 80.4208 12.746C82.4625 14.7877 83.3667 17.521 83.7667 21.5835M34.0833 9.0835H25.75C13.9667 9.0835 8.07083 9.0835 4.4125 12.746C0.75 16.4043 0.75 22.3002 0.75 34.0835C0.75 45.8668 0.75 51.7627 4.4125 55.421C8.07083 59.0835 13.9667 59.0835 25.75 59.0835H34.0833M50.75 59.0835H59.0833C70.8667 59.0835 76.7625 59.0835 80.4208 55.421C83.625 52.221 84.025 47.3127 84.075 38.2502" stroke="black" stroke-width="1.5" stroke-linecap="round"/>
<path d="M68.7917 68.8125C68.9621 69.2001 69.2094 69.549 69.5188 69.8381C69.8281 70.1272 70.193 70.3504 70.5912 70.4941C70.9894 70.6379 71.4127 70.6993 71.8354 70.6745C72.2581 70.6497 72.6713 70.5393 73.05 70.3499C73.4287 70.1606 73.7649 69.8963 74.0384 69.573C74.3118 69.2498 74.5167 68.8743 74.6406 68.4695C74.7645 68.0646 74.8049 67.6388 74.7592 67.2179C74.7136 66.7969 74.5828 66.3897 74.375 66.0208L68.7917 68.8125ZM64.625 60.4792L68.7917 68.8125L74.375 66.0208L70.2083 57.6875L64.625 60.4792ZM16.0417 68.8125C15.8713 69.2001 15.6239 69.549 15.3146 69.8381C15.0052 70.1272 14.6404 70.3504 14.2421 70.4941C13.8439 70.6379 13.4206 70.6993 12.9979 70.6745C12.5753 70.6497 12.1621 70.5393 11.7834 70.3499C11.4047 70.1606 11.0684 69.8963 10.795 69.573C10.5215 69.2498 10.3167 68.8743 10.1927 68.4695C10.0688 68.0646 10.0285 67.6388 10.0741 67.2179C10.1198 66.7969 10.2505 66.3897 10.4583 66.0208L16.0417 68.8125ZM20.2083 60.4792L16.0417 68.8125L10.4583 66.0208L14.625 57.6875L20.2083 60.4792Z" fill="black"/>
<path d="M50.7501 42.4167C62.256 42.4167 71.5834 33.0893 71.5834 21.5833C71.5834 10.0774 62.256 0.75 50.7501 0.75C39.2441 0.75 29.9167 10.0774 29.9167 21.5833C29.9167 33.0893 39.2441 42.4167 50.7501 42.4167Z" stroke="black" stroke-width="1.5"/>
<path d="M42.4167 21.5833C42.4167 23.2315 42.9055 24.8427 43.8212 26.2131C44.7368 27.5835 46.0383 28.6516 47.5611 29.2823C49.0838 29.9131 50.7593 30.0781 52.3758 29.7565C53.9923 29.435 55.4772 28.6413 56.6426 27.4759C57.8081 26.3105 58.6017 24.8256 58.9233 23.2091C59.2448 21.5926 59.0798 19.917 58.4491 18.3943C57.8183 16.8716 56.7502 15.5701 55.3798 14.6544C54.0094 13.7387 52.3983 13.25 50.7501 13.25" stroke="black" stroke-width="1.5" stroke-linecap="round"/>
<path d="M15.3333 23.6665V29.9165" stroke="black" stroke-width="1.5" stroke-linecap="round" stroke-linejoin="round"/>
</svg>
